<?xml version="1.0" encoding="UTF-8"?>
<svg id="Layer_1" xmlns="http://www.w3.org/2000/svg" version="1.1" xmlns:xlink="http://www.w3.org/1999/xlink" viewBox="0 0 841.89 240.29">
  <!-- Generator: Adobe Illustrator 29.3.1, SVG Export Plug-In . SVG Version: 2.1.0 Build 151)  -->
  <defs>
    <style>
      .st0 {
        fill: #33b4f5;
      }

      .st1 {
        fill: #1864d6;
      }

      .st2 {
        fill: url(#linear-gradient);
      }
    </style>
    <linearGradient id="linear-gradient" x1="200.75" y1="125.83" x2="352.25" y2="98.01" gradientUnits="userSpaceOnUse">
      <stop offset=".13" stop-color="#1864d6"/>
      <stop offset="1" stop-color="#3ccfff"/>
    </linearGradient>
  </defs>
  <path class="st1" d="M66.72,106.87c-7.4,0-13.72,2.62-18.94,7.84-5.23,5.23-7.84,11.54-7.84,18.94v3.48c0,7.35,2.61,13.64,7.84,18.87,5.23,5.23,11.54,7.84,18.94,7.84h14.8v-18.35h-22.5v-20.28h42.7v58.9h-35c-6.36,0-12.44-1.25-18.24-3.74-5.8-2.49-10.79-5.83-14.99-10.03-4.19-4.19-7.54-9.19-10.03-14.99-2.49-5.8-3.74-11.88-3.74-18.24v-3.48c0-6.36,1.24-12.44,3.74-18.24,2.49-5.8,5.83-10.79,10.03-14.99,4.19-4.19,9.19-7.54,14.99-10.03,5.8-2.49,11.88-3.74,18.24-3.74h35v20.2h-35Z"/>
  <path class="st0" d="M487.73,86.43c8.71,0,16.75,2.15,24.11,6.46,7.37,4.3,13.21,10.14,17.51,17.51,4.3,7.37,6.46,15.41,6.46,24.11s-2.15,16.75-6.46,24.11-10.14,13.21-17.51,17.51c-7.37,4.3-15.41,6.46-24.11,6.46h-28.16v-58.08h19.92v38.09h8.24c7.73,0,14.36-2.75,19.88-8.24,5.52-5.5,8.28-12.11,8.28-19.85s-2.76-14.35-8.28-19.85c-5.52-5.5-12.15-8.24-19.88-8.24h-28.16v-19.99h28.16Z"/>
  <polygon class="st0" points="712.76 106.57 712.76 86.31 641.76 86.31 641.76 184.03 712.76 184.03 712.76 163.7 662.01 163.7 662.01 145.3 708.46 145.3 708.46 125.04 662.01 125.04 662.01 106.57 712.76 106.57"/>
  <g>
    <polygon class="st1" points="125.78 148.99 136.57 133.46 172 183.88 150.09 183.88 125.78 148.99"/>
    <path class="st1" d="M144.67,132.96l10.95,15.45c15.56-2.73,25.11-11.66,25.69-29.86.24-16.5-6.9-26.02-19.66-30.22-4.02-1.33-8.26-1.9-12.49-1.9h-36.91l11.09,15.74,19.09.25c13.49-.12,18.94,5.74,18.72,15-.21,11.19-6.62,15.4-16.48,15.54Z"/>
  </g>
  <path class="st2" d="M326.38,178.41l-8.36,4.21-37.16-31.77,29.82,17.49-24.53-50.7,19.93-14.22-98.16-6.78,27.21,20.15-46.49-21.81,3.65-8.23,163.66.11-49.74,36.67,20.16,54.89ZM258.82,135.95l7.23-33.24-17.34-1.29-27.56,82.69,71.36-47.99-8.58-17.19-25.12,17.01ZM254.37,84.59h15.17l6.81-32.1,13.99,26.03-11.02-44.04h-7.65l-17.3,50.11Z"/>
  <polygon class="st0" points="427.86 86.78 427.86 149.31 385.36 86.76 375.71 86.78 365.77 86.78 365.77 92.72 365.77 92.72 365.77 184.03 385.32 184.03 385.32 121.5 427.8 184.03 427.86 184.03 437.62 184.03 447.41 184.03 447.41 178.09 447.41 86.78 427.86 86.78"/>
  <polygon class="st0" points="610.05 86.78 610.05 149.31 567.55 86.76 557.9 86.78 547.96 86.78 547.96 92.72 547.96 92.72 547.96 184.03 567.52 184.03 567.52 121.5 610 184.03 610.05 184.03 619.82 184.03 629.61 184.03 629.61 178.09 629.61 86.78 610.05 86.78"/>
  <polygon class="st0" points="822.16 86.55 738.69 86.55 724.91 106.1 763.76 106.1 763.76 183.8 783.31 183.8 783.31 106.1 808.15 106.1 822.16 86.55"/>
</svg>